<svg width="78" height="71" viewBox="0 0 78 71" fill="none" xmlns="http://www.w3.org/2000/svg">
<path d="M38.4086 66.093C36.2656 66.0783 34.0937 65.627 32.4048 64.7136L14.8771 55.3714C7.74287 50.9297 7.29969 50.2575 7.34701 43.3632L7.46241 26.5494C7.50973 19.6551 7.93011 18.9889 14.9963 14.7028L32.7791 5.51571C36.1496 3.76428 41.4269 3.80051 44.773 5.59803L62.3646 14.9698C69.4988 19.4115 69.942 20.0836 69.8947 26.9779L69.7795 43.7627C69.7322 50.6569 69.3118 51.3232 62.2456 55.6092L44.4627 64.7963C42.7294 65.6863 40.5515 66.1077 38.4086 66.093ZM38.8031 8.61162C37.4598 8.6024 36.1468 8.82612 35.2159 9.31428L17.5614 18.4441C12.3261 21.6082 12.3261 21.6082 12.292 26.5825L12.1768 43.3673C12.1426 48.3417 12.1426 48.3417 17.4613 51.6655L34.8615 60.9486C36.7418 61.9506 40.164 61.9741 42.0579 60.998L59.7124 51.8682C64.9158 48.7039 64.9158 48.7039 64.9499 43.7295L65.0651 26.9447C65.0993 21.9704 65.0993 21.9704 59.7805 18.6466L42.3803 9.36345C41.4562 8.86256 40.1464 8.62084 38.8031 8.61162Z" fill="black"/>
<path d="M38.5453 46.0798C31.9246 46.0343 26.5849 41.1104 26.6262 35.0888C26.6676 29.0672 32.0744 24.217 38.695 24.2625C45.3157 24.3079 50.6554 29.2319 50.6141 35.2534C50.5728 41.275 45.1659 46.1252 38.5453 46.0798ZM38.6651 28.6259C34.6991 28.5987 31.4486 31.5146 31.4238 35.1217C31.3991 38.7289 34.6093 41.6891 38.5752 41.7163C42.5412 41.7435 45.7918 38.8276 45.8165 35.2205C45.8413 31.6134 42.6311 28.6532 38.6651 28.6259Z" fill="black"/>
</svg>
