<svg width="917" height="85" viewBox="0 0 917 85" fill="none" xmlns="http://www.w3.org/2000/svg">
<path d="M100.656 17.848V24.904C100.656 25.896 100.896 26.632 101.376 27.112C101.867 27.592 102.544 27.832 103.408 27.832C104.261 27.832 104.928 27.592 105.408 27.112C105.899 26.632 106.144 25.896 106.144 24.904V17.848H107.6V24.888C107.6 25.816 107.413 26.6 107.04 27.24C106.667 27.8693 106.16 28.3387 105.52 28.648C104.891 28.9573 104.181 29.112 103.392 29.112C102.603 29.112 101.888 28.9573 101.248 28.648C100.619 28.3387 100.117 27.8693 99.744 27.24C99.3813 26.6 99.2 25.816 99.2 24.888V17.848H100.656ZM111.325 21.848C111.613 21.3467 112.04 20.9307 112.605 20.6C113.181 20.2587 113.848 20.088 114.605 20.088C115.384 20.088 116.088 20.2747 116.717 20.648C117.357 21.0213 117.858 21.5493 118.221 22.232C118.584 22.904 118.765 23.688 118.765 24.584C118.765 25.4693 118.584 26.2587 118.221 26.952C117.858 27.6453 117.357 28.184 116.717 28.568C116.088 28.952 115.384 29.144 114.605 29.144C113.858 29.144 113.197 28.9787 112.621 28.648C112.056 28.3067 111.624 27.8853 111.325 27.384V33.16H109.869V20.232H111.325V21.848ZM117.277 24.584C117.277 23.9227 117.144 23.3467 116.877 22.856C116.61 22.3653 116.248 21.992 115.789 21.736C115.341 21.48 114.845 21.352 114.301 21.352C113.768 21.352 113.272 21.4853 112.813 21.752C112.365 22.008 112.002 22.3867 111.725 22.888C111.458 23.3787 111.325 23.9493 111.325 24.6C111.325 25.2613 111.458 25.8427 111.725 26.344C112.002 26.8347 112.365 27.2133 112.813 27.48C113.272 27.736 113.768 27.864 114.301 27.864C114.845 27.864 115.341 27.736 115.789 27.48C116.248 27.2133 116.61 26.8347 116.877 26.344C117.144 25.8427 117.277 25.256 117.277 24.584ZM119.977 24.6C119.977 23.6933 120.159 22.904 120.521 22.232C120.884 21.5493 121.385 21.0213 122.025 20.648C122.676 20.2747 123.417 20.088 124.249 20.088C125.327 20.088 126.212 20.3493 126.905 20.872C127.609 21.3947 128.073 22.12 128.297 23.048H126.729C126.58 22.5147 126.287 22.0933 125.849 21.784C125.423 21.4747 124.889 21.32 124.249 21.32C123.417 21.32 122.745 21.608 122.233 22.184C121.721 22.7493 121.465 23.5547 121.465 24.6C121.465 25.656 121.721 26.472 122.233 27.048C122.745 27.624 123.417 27.912 124.249 27.912C124.889 27.912 125.423 27.7627 125.849 27.464C126.276 27.1653 126.569 26.7387 126.729 26.184H128.297C128.063 27.08 127.593 27.8 126.889 28.344C126.185 28.8773 125.305 29.144 124.249 29.144C123.417 29.144 122.676 28.9573 122.025 28.584C121.385 28.2107 120.884 27.6827 120.521 27C120.159 26.3173 119.977 25.5173 119.977 24.6ZM133.904 29.144C133.083 29.144 132.336 28.9573 131.664 28.584C131.003 28.2107 130.48 27.6827 130.096 27C129.723 26.3067 129.536 25.5067 129.536 24.6C129.536 23.704 129.728 22.9147 130.112 22.232C130.507 21.5387 131.04 21.0107 131.712 20.648C132.384 20.2747 133.136 20.088 133.968 20.088C134.8 20.088 135.552 20.2747 136.224 20.648C136.896 21.0107 137.424 21.5333 137.808 22.216C138.203 22.8987 138.4 23.6933 138.4 24.6C138.4 25.5067 138.197 26.3067 137.792 27C137.397 27.6827 136.859 28.2107 136.176 28.584C135.493 28.9573 134.736 29.144 133.904 29.144ZM133.904 27.864C134.427 27.864 134.917 27.7413 135.376 27.496C135.835 27.2507 136.203 26.8827 136.48 26.392C136.768 25.9013 136.912 25.304 136.912 24.6C136.912 23.896 136.773 23.2987 136.496 22.808C136.219 22.3173 135.856 21.9547 135.408 21.72C134.96 21.4747 134.475 21.352 133.952 21.352C133.419 21.352 132.928 21.4747 132.48 21.72C132.043 21.9547 131.691 22.3173 131.424 22.808C131.157 23.2987 131.024 23.896 131.024 24.6C131.024 25.3147 131.152 25.9173 131.408 26.408C131.675 26.8987 132.027 27.2667 132.464 27.512C132.901 27.7467 133.381 27.864 133.904 27.864ZM150.699 20.072C151.381 20.072 151.989 20.216 152.523 20.504C153.056 20.7813 153.477 21.2027 153.787 21.768C154.096 22.3333 154.251 23.0213 154.251 23.832V29H152.811V24.04C152.811 23.1653 152.592 22.4987 152.155 22.04C151.728 21.5707 151.147 21.336 150.411 21.336C149.653 21.336 149.051 21.5813 148.603 22.072C148.155 22.552 147.931 23.2507 147.931 24.168V29H146.491V24.04C146.491 23.1653 146.272 22.4987 145.835 22.04C145.408 21.5707 144.827 21.336 144.091 21.336C143.333 21.336 142.731 21.5813 142.283 22.072C141.835 22.552 141.611 23.2507 141.611 24.168V29H140.155V20.232H141.611V21.496C141.899 21.0373 142.283 20.6853 142.763 20.44C143.253 20.1947 143.792 20.072 144.379 20.072C145.115 20.072 145.765 20.2373 146.331 20.568C146.896 20.8987 147.317 21.384 147.595 22.024C147.84 21.4053 148.245 20.9253 148.811 20.584C149.376 20.2427 150.005 20.072 150.699 20.072ZM157.231 18.808C156.954 18.808 156.719 18.712 156.527 18.52C156.335 18.328 156.239 18.0933 156.239 17.816C156.239 17.5387 156.335 17.304 156.527 17.112C156.719 16.92 156.954 16.824 157.231 16.824C157.498 16.824 157.722 16.92 157.903 17.112C158.095 17.304 158.191 17.5387 158.191 17.816C158.191 18.0933 158.095 18.328 157.903 18.52C157.722 18.712 157.498 18.808 157.231 18.808ZM157.935 20.232V29H156.479V20.232H157.935ZM164.528 20.072C165.595 20.072 166.459 20.3973 167.12 21.048C167.782 21.688 168.112 22.616 168.112 23.832V29H166.672V24.04C166.672 23.1653 166.454 22.4987 166.016 22.04C165.579 21.5707 164.982 21.336 164.224 21.336C163.456 21.336 162.843 21.576 162.384 22.056C161.936 22.536 161.712 23.2347 161.712 24.152V29H160.256V20.232H161.712V21.48C162 21.032 162.39 20.6853 162.88 20.44C163.382 20.1947 163.931 20.072 164.528 20.072ZM173.947 20.088C174.704 20.088 175.365 20.2533 175.931 20.584C176.507 20.9147 176.933 21.3307 177.211 21.832V20.232H178.683V29.192C178.683 29.992 178.512 30.7013 178.171 31.32C177.829 31.9493 177.339 32.44 176.699 32.792C176.069 33.144 175.333 33.32 174.491 33.32C173.339 33.32 172.379 33.048 171.611 32.504C170.843 31.96 170.389 31.2187 170.251 30.28H171.691C171.851 30.8133 172.181 31.24 172.683 31.56C173.184 31.8907 173.787 32.056 174.491 32.056C175.291 32.056 175.941 31.8053 176.443 31.304C176.955 30.8027 177.211 30.0987 177.211 29.192V27.352C176.923 27.864 176.496 28.2907 175.931 28.632C175.365 28.9733 174.704 29.144 173.947 29.144C173.168 29.144 172.459 28.952 171.819 28.568C171.189 28.184 170.693 27.6453 170.331 26.952C169.968 26.2587 169.787 25.4693 169.787 24.584C169.787 23.688 169.968 22.904 170.331 22.232C170.693 21.5493 171.189 21.0213 171.819 20.648C172.459 20.2747 173.168 20.088 173.947 20.088ZM177.211 24.6C177.211 23.9387 177.077 23.3627 176.811 22.872C176.544 22.3813 176.181 22.008 175.723 21.752C175.275 21.4853 174.779 21.352 174.235 21.352C173.691 21.352 173.195 21.48 172.747 21.736C172.299 21.992 171.941 22.3653 171.675 22.856C171.408 23.3467 171.275 23.9227 171.275 24.584C171.275 25.256 171.408 25.8427 171.675 26.344C171.941 26.8347 172.299 27.2133 172.747 27.48C173.195 27.736 173.691 27.864 174.235 27.864C174.779 27.864 175.275 27.736 175.723 27.48C176.181 27.2133 176.544 26.8347 176.811 26.344C177.077 25.8427 177.211 25.2613 177.211 24.6ZM186.545 19.032V22.76H190.609V23.96H186.545V27.8H191.089V29H185.089V17.832H191.089V19.032H186.545ZM196.396 27.656L199.116 20.232H200.668L197.228 29H195.532L192.092 20.232H193.66L196.396 27.656ZM209.941 24.28C209.941 24.5573 209.925 24.8507 209.893 25.16H202.885C202.938 26.024 203.231 26.7013 203.765 27.192C204.309 27.672 204.965 27.912 205.733 27.912C206.362 27.912 206.885 27.768 207.301 27.48C207.727 27.1813 208.026 26.7867 208.197 26.296H209.765C209.53 27.1387 209.061 27.8267 208.357 28.36C207.653 28.8827 206.778 29.144 205.733 29.144C204.901 29.144 204.154 28.9573 203.493 28.584C202.842 28.2107 202.33 27.6827 201.957 27C201.583 26.3067 201.397 25.5067 201.397 24.6C201.397 23.6933 201.578 22.8987 201.941 22.216C202.303 21.5333 202.81 21.0107 203.461 20.648C204.122 20.2747 204.879 20.088 205.733 20.088C206.565 20.088 207.301 20.2693 207.941 20.632C208.581 20.9947 209.071 21.496 209.413 22.136C209.765 22.7653 209.941 23.48 209.941 24.28ZM208.437 23.976C208.437 23.4213 208.314 22.9467 208.069 22.552C207.823 22.1467 207.487 21.8427 207.061 21.64C206.645 21.4267 206.181 21.32 205.669 21.32C204.933 21.32 204.303 21.5547 203.781 22.024C203.269 22.4933 202.975 23.144 202.901 23.976H208.437ZM215.975 20.072C217.041 20.072 217.905 20.3973 218.567 21.048C219.228 21.688 219.559 22.616 219.559 23.832V29H218.119V24.04C218.119 23.1653 217.9 22.4987 217.463 22.04C217.025 21.5707 216.428 21.336 215.671 21.336C214.903 21.336 214.289 21.576 213.831 22.056C213.383 22.536 213.159 23.2347 213.159 24.152V29H211.703V20.232H213.159V21.48C213.447 21.032 213.836 20.6853 214.327 20.44C214.828 20.1947 215.377 20.072 215.975 20.072ZM223.553 21.432V26.6C223.553 27.0267 223.644 27.3307 223.825 27.512C224.006 27.6827 224.321 27.768 224.769 27.768H225.841V29H224.529C223.718 29 223.11 28.8133 222.705 28.44C222.3 28.0667 222.097 27.4533 222.097 26.6V21.432H220.961V20.232H222.097V18.024H223.553V20.232H225.841V21.432H223.553ZM230.549 29.144C229.877 29.144 229.274 29.032 228.741 28.808C228.208 28.5733 227.786 28.2533 227.477 27.848C227.168 27.432 226.997 26.9573 226.965 26.424H228.469C228.512 26.8613 228.714 27.2187 229.077 27.496C229.45 27.7733 229.936 27.912 230.533 27.912C231.088 27.912 231.525 27.7893 231.845 27.544C232.165 27.2987 232.325 26.9893 232.325 26.616C232.325 26.232 232.154 25.9493 231.813 25.768C231.472 25.576 230.944 25.3893 230.229 25.208C229.578 25.0373 229.045 24.8667 228.629 24.696C228.224 24.5147 227.872 24.2533 227.573 23.912C227.285 23.56 227.141 23.1013 227.141 22.536C227.141 22.088 227.274 21.6773 227.541 21.304C227.808 20.9307 228.186 20.6373 228.677 20.424C229.168 20.2 229.728 20.088 230.357 20.088C231.328 20.088 232.112 20.3333 232.709 20.824C233.306 21.3147 233.626 21.9867 233.669 22.84H232.213C232.181 22.3813 231.994 22.0133 231.653 21.736C231.322 21.4587 230.874 21.32 230.309 21.32C229.786 21.32 229.37 21.432 229.061 21.656C228.752 21.88 228.597 22.1733 228.597 22.536C228.597 22.824 228.688 23.064 228.869 23.256C229.061 23.4373 229.296 23.5867 229.573 23.704C229.861 23.8107 230.256 23.9333 230.757 24.072C231.386 24.2427 231.898 24.4133 232.293 24.584C232.688 24.744 233.024 24.9893 233.301 25.32C233.589 25.6507 233.738 26.0827 233.749 26.616C233.749 27.096 233.616 27.528 233.349 27.912C233.082 28.296 232.704 28.6 232.213 28.824C231.733 29.0373 231.178 29.144 230.549 29.144Z" fill="#ACACAC"/>
<ellipse cx="42.3702" cy="41.5286" rx="42.3702" ry="40.5628" fill="url(#paint0_linear_9_350)"/>
<path d="M38.3654 40.5849C38.1889 40.568 37.977 40.568 37.7828 40.5849C33.5811 40.4497 30.2445 37.154 30.2445 33.0977C30.2445 28.9569 33.74 25.5936 38.083 25.5936C42.4083 25.5936 45.9215 28.9569 45.9215 33.0977C45.9038 37.154 42.5671 40.4497 38.3654 40.5849Z" stroke="#00AC4F" stroke-width="2.625" stroke-linecap="round" stroke-linejoin="round"/>
<path d="M51.1642 28.9731C54.5891 28.9731 57.3432 31.6266 57.3432 34.8885C57.3432 38.0828 54.695 40.6856 51.3937 40.8039C51.2525 40.787 51.0936 40.787 50.9347 40.8039" stroke="#00AC4F" stroke-width="2.625" stroke-linecap="round" stroke-linejoin="round"/>
<path d="M29.5386 46.8207C25.2663 49.5587 25.2663 54.0206 29.5386 56.7417C34.3935 59.8515 42.3556 59.8515 47.2105 56.7417C51.4828 54.0037 51.4828 49.5418 47.2105 46.8207C42.3732 43.7278 34.4112 43.7278 29.5386 46.8207Z" stroke="#00AC4F" stroke-width="2.625" stroke-linecap="round" stroke-linejoin="round"/>
<path d="M54.5715 56.0157C55.8426 55.7622 57.0431 55.272 58.0318 54.5453C60.7858 52.5678 60.7858 49.3059 58.0318 47.3285C57.0608 46.6186 55.8779 46.1454 54.6245 45.875" stroke="#00AC4F" stroke-width="2.625" stroke-linecap="round" stroke-linejoin="round"/>
<path d="M437.688 20.032V23.76H441.752V24.96H437.688V28.8H442.232V30H436.232V18.832H442.232V20.032H437.688ZM447.539 28.656L450.259 21.232H451.811L448.371 30H446.675L443.235 21.232H444.803L447.539 28.656ZM461.084 25.28C461.084 25.5573 461.068 25.8507 461.036 26.16H454.028C454.081 27.024 454.375 27.7013 454.908 28.192C455.452 28.672 456.108 28.912 456.876 28.912C457.505 28.912 458.028 28.768 458.444 28.48C458.871 28.1813 459.169 27.7867 459.34 27.296H460.908C460.673 28.1387 460.204 28.8267 459.5 29.36C458.796 29.8827 457.921 30.144 456.876 30.144C456.044 30.144 455.297 29.9573 454.636 29.584C453.985 29.2107 453.473 28.6827 453.1 28C452.727 27.3067 452.54 26.5067 452.54 25.6C452.54 24.6933 452.721 23.8987 453.084 23.216C453.447 22.5333 453.953 22.0107 454.604 21.648C455.265 21.2747 456.023 21.088 456.876 21.088C457.708 21.088 458.444 21.2693 459.084 21.632C459.724 21.9947 460.215 22.496 460.556 23.136C460.908 23.7653 461.084 24.48 461.084 25.28ZM459.58 24.976C459.58 24.4213 459.457 23.9467 459.212 23.552C458.967 23.1467 458.631 22.8427 458.204 22.64C457.788 22.4267 457.324 22.32 456.812 22.32C456.076 22.32 455.447 22.5547 454.924 23.024C454.412 23.4933 454.119 24.144 454.044 24.976H459.58ZM467.118 21.072C468.184 21.072 469.048 21.3973 469.71 22.048C470.371 22.688 470.702 23.616 470.702 24.832V30H469.262V25.04C469.262 24.1653 469.043 23.4987 468.606 23.04C468.168 22.5707 467.571 22.336 466.814 22.336C466.046 22.336 465.432 22.576 464.974 23.056C464.526 23.536 464.302 24.2347 464.302 25.152V30H462.846V21.232H464.302V22.48C464.59 22.032 464.979 21.6853 465.47 21.44C465.971 21.1947 466.52 21.072 467.118 21.072ZM474.696 22.432V27.6C474.696 28.0267 474.787 28.3307 474.968 28.512C475.149 28.6827 475.464 28.768 475.912 28.768H476.984V30H475.672C474.861 30 474.253 29.8133 473.848 29.44C473.443 29.0667 473.24 28.4533 473.24 27.6V22.432H472.104V21.232H473.24V19.024H474.696V21.232H476.984V22.432H474.696ZM481.692 30.144C481.02 30.144 480.418 30.032 479.884 29.808C479.351 29.5733 478.93 29.2533 478.62 28.848C478.311 28.432 478.14 27.9573 478.108 27.424H479.612C479.655 27.8613 479.858 28.2187 480.22 28.496C480.594 28.7733 481.079 28.912 481.676 28.912C482.231 28.912 482.668 28.7893 482.988 28.544C483.308 28.2987 483.468 27.9893 483.468 27.616C483.468 27.232 483.298 26.9493 482.956 26.768C482.615 26.576 482.087 26.3893 481.372 26.208C480.722 26.0373 480.188 25.8667 479.772 25.696C479.367 25.5147 479.015 25.2533 478.716 24.912C478.428 24.56 478.284 24.1013 478.284 23.536C478.284 23.088 478.418 22.6773 478.684 22.304C478.951 21.9307 479.33 21.6373 479.82 21.424C480.311 21.2 480.871 21.088 481.5 21.088C482.471 21.088 483.255 21.3333 483.852 21.824C484.45 22.3147 484.77 22.9867 484.812 23.84H483.356C483.324 23.3813 483.138 23.0133 482.796 22.736C482.466 22.4587 482.018 22.32 481.452 22.32C480.93 22.32 480.514 22.432 480.204 22.656C479.895 22.88 479.74 23.1733 479.74 23.536C479.74 23.824 479.831 24.064 480.012 24.256C480.204 24.4373 480.439 24.5867 480.716 24.704C481.004 24.8107 481.399 24.9333 481.9 25.072C482.53 25.2427 483.042 25.4133 483.436 25.584C483.831 25.744 484.167 25.9893 484.444 26.32C484.732 26.6507 484.882 27.0827 484.892 27.616C484.892 28.096 484.759 28.528 484.492 28.912C484.226 29.296 483.847 29.6 483.356 29.824C482.876 30.0373 482.322 30.144 481.692 30.144ZM497.485 27.52H492.621L491.725 30H490.189L494.221 18.912H495.901L499.917 30H498.381L497.485 27.52ZM497.069 26.336L495.053 20.704L493.037 26.336H497.069ZM503.291 22.432V27.6C503.291 28.0267 503.381 28.3307 503.563 28.512C503.744 28.6827 504.059 28.768 504.507 28.768H505.579V30H504.267C503.456 30 502.848 29.8133 502.443 29.44C502.037 29.0667 501.835 28.4533 501.835 27.6V22.432H500.699V21.232H501.835V19.024H503.291V21.232H505.579V22.432H503.291ZM508.959 22.432V27.6C508.959 28.0267 509.049 28.3307 509.231 28.512C509.412 28.6827 509.727 28.768 510.175 28.768H511.247V30H509.935C509.124 30 508.516 29.8133 508.111 29.44C507.705 29.0667 507.503 28.4533 507.503 27.6V22.432H506.367V21.232H507.503V19.024H508.959V21.232H511.247V22.432H508.959ZM520.851 25.28C520.851 25.5573 520.835 25.8507 520.803 26.16H513.795C513.848 27.024 514.141 27.7013 514.675 28.192C515.219 28.672 515.875 28.912 516.643 28.912C517.272 28.912 517.795 28.768 518.211 28.48C518.637 28.1813 518.936 27.7867 519.107 27.296H520.675C520.44 28.1387 519.971 28.8267 519.267 29.36C518.563 29.8827 517.688 30.144 516.643 30.144C515.811 30.144 515.064 29.9573 514.403 29.584C513.752 29.2107 513.24 28.6827 512.867 28C512.493 27.3067 512.307 26.5067 512.307 25.6C512.307 24.6933 512.488 23.8987 512.851 23.216C513.213 22.5333 513.72 22.0107 514.371 21.648C515.032 21.2747 515.789 21.088 516.643 21.088C517.475 21.088 518.211 21.2693 518.851 21.632C519.491 21.9947 519.981 22.496 520.323 23.136C520.675 23.7653 520.851 24.48 520.851 25.28ZM519.347 24.976C519.347 24.4213 519.224 23.9467 518.979 23.552C518.733 23.1467 518.397 22.8427 517.971 22.64C517.555 22.4267 517.091 22.32 516.579 22.32C515.843 22.32 515.213 22.5547 514.691 23.024C514.179 23.4933 513.885 24.144 513.811 24.976H519.347ZM526.885 21.072C527.951 21.072 528.815 21.3973 529.477 22.048C530.138 22.688 530.469 23.616 530.469 24.832V30H529.029V25.04C529.029 24.1653 528.81 23.4987 528.373 23.04C527.935 22.5707 527.338 22.336 526.581 22.336C525.813 22.336 525.199 22.576 524.741 23.056C524.293 23.536 524.069 24.2347 524.069 25.152V30H522.613V21.232H524.069V22.48C524.357 22.032 524.746 21.6853 525.237 21.44C525.738 21.1947 526.287 21.072 526.885 21.072ZM532.143 25.584C532.143 24.688 532.324 23.904 532.687 23.232C533.05 22.5493 533.546 22.0213 534.175 21.648C534.815 21.2747 535.53 21.088 536.319 21.088C537.002 21.088 537.636 21.248 538.223 21.568C538.81 21.8773 539.258 22.288 539.567 22.8V18.16H541.039V30H539.567V28.352C539.279 28.8747 538.852 29.3067 538.287 29.648C537.722 29.9787 537.06 30.144 536.303 30.144C535.524 30.144 534.815 29.952 534.175 29.568C533.546 29.184 533.05 28.6453 532.687 27.952C532.324 27.2587 532.143 26.4693 532.143 25.584ZM539.567 25.6C539.567 24.9387 539.434 24.3627 539.167 23.872C538.9 23.3813 538.538 23.008 538.079 22.752C537.631 22.4853 537.135 22.352 536.591 22.352C536.047 22.352 535.551 22.48 535.103 22.736C534.655 22.992 534.298 23.3653 534.031 23.856C533.764 24.3467 533.631 24.9227 533.631 25.584C533.631 26.256 533.764 26.8427 534.031 27.344C534.298 27.8347 534.655 28.2133 535.103 28.48C535.551 28.736 536.047 28.864 536.591 28.864C537.135 28.864 537.631 28.736 538.079 28.48C538.538 28.2133 538.9 27.8347 539.167 27.344C539.434 26.8427 539.567 26.2613 539.567 25.6ZM551.339 25.28C551.339 25.5573 551.323 25.8507 551.291 26.16H544.283C544.337 27.024 544.63 27.7013 545.163 28.192C545.707 28.672 546.363 28.912 547.131 28.912C547.761 28.912 548.283 28.768 548.699 28.48C549.126 28.1813 549.425 27.7867 549.595 27.296H551.163C550.929 28.1387 550.459 28.8267 549.755 29.36C549.051 29.8827 548.177 30.144 547.131 30.144C546.299 30.144 545.553 29.9573 544.891 29.584C544.241 29.2107 543.729 28.6827 543.355 28C542.982 27.3067 542.795 26.5067 542.795 25.6C542.795 24.6933 542.977 23.8987 543.339 23.216C543.702 22.5333 544.209 22.0107 544.859 21.648C545.521 21.2747 546.278 21.088 547.131 21.088C547.963 21.088 548.699 21.2693 549.339 21.632C549.979 21.9947 550.47 22.496 550.811 23.136C551.163 23.7653 551.339 24.48 551.339 25.28ZM549.835 24.976C549.835 24.4213 549.713 23.9467 549.467 23.552C549.222 23.1467 548.886 22.8427 548.459 22.64C548.043 22.4267 547.579 22.32 547.067 22.32C546.331 22.32 545.702 22.5547 545.179 23.024C544.667 23.4933 544.374 24.144 544.299 24.976H549.835ZM552.557 25.584C552.557 24.688 552.739 23.904 553.101 23.232C553.464 22.5493 553.96 22.0213 554.589 21.648C555.229 21.2747 555.944 21.088 556.733 21.088C557.416 21.088 558.051 21.248 558.637 21.568C559.224 21.8773 559.672 22.288 559.981 22.8V18.16H561.453V30H559.981V28.352C559.693 28.8747 559.267 29.3067 558.701 29.648C558.136 29.9787 557.475 30.144 556.717 30.144C555.939 30.144 555.229 29.952 554.589 29.568C553.96 29.184 553.464 28.6453 553.101 27.952C552.739 27.2587 552.557 26.4693 552.557 25.584ZM559.981 25.6C559.981 24.9387 559.848 24.3627 559.581 23.872C559.315 23.3813 558.952 23.008 558.493 22.752C558.045 22.4853 557.549 22.352 557.005 22.352C556.461 22.352 555.965 22.48 555.517 22.736C555.069 22.992 554.712 23.3653 554.445 23.856C554.179 24.3467 554.045 24.9227 554.045 25.584C554.045 26.256 554.179 26.8427 554.445 27.344C554.712 27.8347 555.069 28.2133 555.517 28.48C555.965 28.736 556.461 28.864 557.005 28.864C557.549 28.864 558.045 28.736 558.493 28.48C558.952 28.2133 559.315 27.8347 559.581 27.344C559.848 26.8427 559.981 26.2613 559.981 25.6Z" fill="#ACACAC"/>
<ellipse cx="375.279" cy="41.5286" rx="42.3702" ry="40.5628" fill="url(#paint1_linear_9_350)"/>
<path d="M379.381 52.8766L381.937 55.3232L387.048 50.4299" stroke="#00AC4F" stroke-width="2.5" stroke-linecap="round" stroke-linejoin="round"/>
<path d="M375.548 39.7101C375.38 39.694 375.178 39.694 374.993 39.7101C370.992 39.5813 367.814 36.4425 367.814 32.5794C367.797 28.6358 371.143 25.4326 375.263 25.4326C379.382 25.4326 382.728 28.6358 382.728 32.5794C382.728 36.4425 379.533 39.5813 375.548 39.7101Z" stroke="#00AC4F" stroke-width="2.5" stroke-linecap="round" stroke-linejoin="round"/>
<path d="M375.262 57.319C372.202 57.319 369.159 56.5785 366.838 55.0977C362.77 52.4901 362.77 48.2406 366.838 45.6491C371.462 42.6874 379.045 42.6874 383.669 45.6491" stroke="#00AC4F" stroke-width="2.5" stroke-linecap="round" stroke-linejoin="round"/>
<path d="M757 29H755.544L749.688 20.12V29H748.232V17.832H749.688L755.544 26.696V17.832H757V29ZM763.146 29.144C762.325 29.144 761.578 28.9573 760.906 28.584C760.245 28.2107 759.722 27.6827 759.338 27C758.965 26.3067 758.778 25.5067 758.778 24.6C758.778 23.704 758.97 22.9147 759.354 22.232C759.749 21.5387 760.282 21.0107 760.954 20.648C761.626 20.2747 762.378 20.088 763.21 20.088C764.042 20.088 764.794 20.2747 765.466 20.648C766.138 21.0107 766.666 21.5333 767.05 22.216C767.445 22.8987 767.642 23.6933 767.642 24.6C767.642 25.5067 767.439 26.3067 767.034 27C766.639 27.6827 766.101 28.2107 765.418 28.584C764.735 28.9573 763.978 29.144 763.146 29.144ZM763.146 27.864C763.669 27.864 764.159 27.7413 764.618 27.496C765.077 27.2507 765.445 26.8827 765.722 26.392C766.01 25.9013 766.154 25.304 766.154 24.6C766.154 23.896 766.015 23.2987 765.738 22.808C765.461 22.3173 765.098 21.9547 764.65 21.72C764.202 21.4747 763.717 21.352 763.194 21.352C762.661 21.352 762.17 21.4747 761.722 21.72C761.285 21.9547 760.933 22.3173 760.666 22.808C760.399 23.2987 760.266 23.896 760.266 24.6C760.266 25.3147 760.394 25.9173 760.65 26.408C760.917 26.8987 761.269 27.2667 761.706 27.512C762.143 27.7467 762.623 27.864 763.146 27.864ZM771.172 21.432V26.6C771.172 27.0267 771.263 27.3307 771.444 27.512C771.626 27.6827 771.94 27.768 772.388 27.768H773.46V29H772.148C771.338 29 770.73 28.8133 770.324 28.44C769.919 28.0667 769.716 27.4533 769.716 26.6V21.432H768.58V20.232H769.716V18.024H771.172V20.232H773.46V21.432H771.172ZM775.817 18.808C775.539 18.808 775.305 18.712 775.113 18.52C774.921 18.328 774.825 18.0933 774.825 17.816C774.825 17.5387 774.921 17.304 775.113 17.112C775.305 16.92 775.539 16.824 775.817 16.824C776.083 16.824 776.307 16.92 776.489 17.112C776.681 17.304 776.777 17.5387 776.777 17.816C776.777 18.0933 776.681 18.328 776.489 18.52C776.307 18.712 776.083 18.808 775.817 18.808ZM776.521 20.232V29H775.065V20.232H776.521ZM782.41 21.432H780.57V29H779.114V21.432H777.978V20.232H779.114V19.608C779.114 18.6267 779.365 17.912 779.866 17.464C780.378 17.0053 781.194 16.776 782.314 16.776V17.992C781.674 17.992 781.221 18.12 780.954 18.376C780.698 18.6213 780.57 19.032 780.57 19.608V20.232H782.41V21.432ZM784.7 18.808C784.422 18.808 784.188 18.712 783.996 18.52C783.804 18.328 783.708 18.0933 783.708 17.816C783.708 17.5387 783.804 17.304 783.996 17.112C784.188 16.92 784.422 16.824 784.7 16.824C784.966 16.824 785.19 16.92 785.372 17.112C785.564 17.304 785.66 17.5387 785.66 17.816C785.66 18.0933 785.564 18.328 785.372 18.52C785.19 18.712 784.966 18.808 784.7 18.808ZM785.404 20.232V29H783.948V20.232H785.404ZM787.181 24.6C787.181 23.6933 787.362 22.904 787.725 22.232C788.088 21.5493 788.589 21.0213 789.229 20.648C789.88 20.2747 790.621 20.088 791.453 20.088C792.53 20.088 793.416 20.3493 794.109 20.872C794.813 21.3947 795.277 22.12 795.501 23.048H793.933C793.784 22.5147 793.49 22.0933 793.053 21.784C792.626 21.4747 792.093 21.32 791.453 21.32C790.621 21.32 789.949 21.608 789.437 22.184C788.925 22.7493 788.669 23.5547 788.669 24.6C788.669 25.656 788.925 26.472 789.437 27.048C789.949 27.624 790.621 27.912 791.453 27.912C792.093 27.912 792.626 27.7627 793.053 27.464C793.48 27.1653 793.773 26.7387 793.933 26.184H795.501C795.266 27.08 794.797 27.8 794.093 28.344C793.389 28.8773 792.509 29.144 791.453 29.144C790.621 29.144 789.88 28.9573 789.229 28.584C788.589 28.2107 788.088 27.6827 787.725 27C787.362 26.3173 787.181 25.5173 787.181 24.6ZM796.74 24.584C796.74 23.688 796.921 22.904 797.284 22.232C797.647 21.5493 798.143 21.0213 798.772 20.648C799.412 20.2747 800.121 20.088 800.9 20.088C801.668 20.088 802.335 20.2533 802.9 20.584C803.465 20.9147 803.887 21.3307 804.164 21.832V20.232H805.636V29H804.164V27.368C803.876 27.88 803.444 28.3067 802.868 28.648C802.303 28.9787 801.641 29.144 800.884 29.144C800.105 29.144 799.401 28.952 798.772 28.568C798.143 28.184 797.647 27.6453 797.284 26.952C796.921 26.2587 796.74 25.4693 796.74 24.584ZM804.164 24.6C804.164 23.9387 804.031 23.3627 803.764 22.872C803.497 22.3813 803.135 22.008 802.676 21.752C802.228 21.4853 801.732 21.352 801.188 21.352C800.644 21.352 800.148 21.48 799.7 21.736C799.252 21.992 798.895 22.3653 798.628 22.856C798.361 23.3467 798.228 23.9227 798.228 24.584C798.228 25.256 798.361 25.8427 798.628 26.344C798.895 26.8347 799.252 27.2133 799.7 27.48C800.148 27.736 800.644 27.864 801.188 27.864C801.732 27.864 802.228 27.736 802.676 27.48C803.135 27.2133 803.497 26.8347 803.764 26.344C804.031 25.8427 804.164 25.2613 804.164 24.6ZM809.712 21.432V26.6C809.712 27.0267 809.803 27.3307 809.984 27.512C810.166 27.6827 810.48 27.768 810.928 27.768H812V29H810.688C809.878 29 809.27 28.8133 808.864 28.44C808.459 28.0667 808.256 27.4533 808.256 26.6V21.432H807.12V20.232H808.256V18.024H809.712V20.232H812V21.432H809.712ZM814.356 18.808C814.079 18.808 813.844 18.712 813.652 18.52C813.46 18.328 813.364 18.0933 813.364 17.816C813.364 17.5387 813.46 17.304 813.652 17.112C813.844 16.92 814.079 16.824 814.356 16.824C814.623 16.824 814.847 16.92 815.028 17.112C815.22 17.304 815.316 17.5387 815.316 17.816C815.316 18.0933 815.22 18.328 815.028 18.52C814.847 18.712 814.623 18.808 814.356 18.808ZM815.06 20.232V29H813.604V20.232H815.06ZM821.206 29.144C820.385 29.144 819.638 28.9573 818.966 28.584C818.305 28.2107 817.782 27.6827 817.398 27C817.025 26.3067 816.838 25.5067 816.838 24.6C816.838 23.704 817.03 22.9147 817.414 22.232C817.809 21.5387 818.342 21.0107 819.014 20.648C819.686 20.2747 820.438 20.088 821.27 20.088C822.102 20.088 822.854 20.2747 823.526 20.648C824.198 21.0107 824.726 21.5333 825.11 22.216C825.505 22.8987 825.702 23.6933 825.702 24.6C825.702 25.5067 825.499 26.3067 825.094 27C824.699 27.6827 824.161 28.2107 823.478 28.584C822.795 28.9573 822.038 29.144 821.206 29.144ZM821.206 27.864C821.729 27.864 822.219 27.7413 822.678 27.496C823.137 27.2507 823.505 26.8827 823.782 26.392C824.07 25.9013 824.214 25.304 824.214 24.6C824.214 23.896 824.075 23.2987 823.798 22.808C823.521 22.3173 823.158 21.9547 822.71 21.72C822.262 21.4747 821.777 21.352 821.254 21.352C820.721 21.352 820.23 21.4747 819.782 21.72C819.345 21.9547 818.993 22.3173 818.726 22.808C818.459 23.2987 818.326 23.896 818.326 24.6C818.326 25.3147 818.454 25.9173 818.71 26.408C818.977 26.8987 819.329 27.2667 819.766 27.512C820.203 27.7467 820.683 27.864 821.206 27.864ZM831.728 20.072C832.795 20.072 833.659 20.3973 834.32 21.048C834.982 21.688 835.312 22.616 835.312 23.832V29H833.872V24.04C833.872 23.1653 833.654 22.4987 833.216 22.04C832.779 21.5707 832.182 21.336 831.424 21.336C830.656 21.336 830.043 21.576 829.584 22.056C829.136 22.536 828.912 23.2347 828.912 24.152V29H827.456V20.232H828.912V21.48C829.2 21.032 829.59 20.6853 830.08 20.44C830.582 20.1947 831.131 20.072 831.728 20.072ZM840.635 29.144C839.963 29.144 839.36 29.032 838.827 28.808C838.293 28.5733 837.872 28.2533 837.563 27.848C837.253 27.432 837.083 26.9573 837.051 26.424H838.555C838.597 26.8613 838.8 27.2187 839.163 27.496C839.536 27.7733 840.021 27.912 840.619 27.912C841.173 27.912 841.611 27.7893 841.931 27.544C842.251 27.2987 842.411 26.9893 842.411 26.616C842.411 26.232 842.24 25.9493 841.899 25.768C841.557 25.576 841.029 25.3893 840.315 25.208C839.664 25.0373 839.131 24.8667 838.715 24.696C838.309 24.5147 837.957 24.2533 837.659 23.912C837.371 23.56 837.227 23.1013 837.227 22.536C837.227 22.088 837.36 21.6773 837.627 21.304C837.893 20.9307 838.272 20.6373 838.763 20.424C839.253 20.2 839.813 20.088 840.443 20.088C841.413 20.088 842.197 20.3333 842.795 20.824C843.392 21.3147 843.712 21.9867 843.755 22.84H842.299C842.267 22.3813 842.08 22.0133 841.739 21.736C841.408 21.4587 840.96 21.32 840.395 21.32C839.872 21.32 839.456 21.432 839.147 21.656C838.837 21.88 838.683 22.1733 838.683 22.536C838.683 22.824 838.773 23.064 838.955 23.256C839.147 23.4373 839.381 23.5867 839.659 23.704C839.947 23.8107 840.341 23.9333 840.843 24.072C841.472 24.2427 841.984 24.4133 842.379 24.584C842.773 24.744 843.109 24.9893 843.387 25.32C843.675 25.6507 843.824 26.0827 843.835 26.616C843.835 27.096 843.701 27.528 843.435 27.912C843.168 28.296 842.789 28.6 842.299 28.824C841.819 29.0373 841.264 29.144 840.635 29.144Z" fill="#ACACAC"/>
<ellipse cx="669.37" cy="41.5628" rx="42.3702" ry="40.5628" fill="url(#paint2_linear_9_350)"/>
<path d="M659.554 24.6617H679.168C685.453 24.6617 687.024 26.1659 687.024 32.1658V42.8642C687.024 48.881 685.453 50.3683 679.186 50.3683H659.554C653.287 50.3852 651.716 48.881 651.716 42.8811V32.1658C651.716 26.1659 653.287 24.6617 659.554 24.6617Z" stroke="#00AC4F" stroke-width="2.625" stroke-linecap="round" stroke-linejoin="round"/>
<path d="M669.37 50.3848V58.4635" stroke="#00AC4F" stroke-width="2.625" stroke-linecap="round" stroke-linejoin="round"/>
<path d="M651.716 43.253H687.024" stroke="#00AC4F" stroke-width="2.625" stroke-linecap="round" stroke-linejoin="round"/>
<path d="M661.426 58.464H677.315" stroke="#00AC4F" stroke-width="2.625" stroke-linecap="round" stroke-linejoin="round"/>
<line x1="276.915" y1="0.5" x2="276.915" y2="83.523" stroke="#F0F0F0" stroke-linecap="round"/>
<line x1="599.736" y1="0.5" x2="599.736" y2="83.523" stroke="#F0F0F0" stroke-linecap="round"/>
<defs>
<linearGradient id="paint0_linear_9_350" x1="75.2071" y1="0.96578" x2="44.7803" y2="82.9855" gradientUnits="userSpaceOnUse">
<stop stop-color="#D3FFE7"/>
<stop offset="1" stop-color="#EFFFF6"/>
</linearGradient>
<linearGradient id="paint1_linear_9_350" x1="408.116" y1="0.96578" x2="377.689" y2="82.9855" gradientUnits="userSpaceOnUse">
<stop stop-color="#D3FFE7"/>
<stop offset="1" stop-color="#EFFFF6"/>
</linearGradient>
<linearGradient id="paint2_linear_9_350" x1="702.207" y1="1.00001" x2="671.78" y2="83.0197" gradientUnits="userSpaceOnUse">
<stop stop-color="#D3FFE7"/>
<stop offset="1" stop-color="#EFFFF6"/>
</linearGradient>
</defs>
</svg>
